<?xml version="1.0" encoding="UTF-8" standalone="no"?>
<!-- Created with Inkscape (http://www.inkscape.org/) -->

<svg
   width="86.849602"
   height="86.849602"
   viewBox="0 0 86.849602 86.849602"
   version="1.1"
   id="svg1"
   xml:space="preserve"
   xmlns="http://www.w3.org/2000/svg"
   xmlns:svg="http://www.w3.org/2000/svg"><defs
     id="defs1" /><g
     id="layer2"
     transform="translate(-1774.2083,-1167.8664)"><path
       id="circle1"
       style="fill:#2bd0b7;fill-opacity:1;stroke-width:0.259459;paint-order:fill markers stroke"
       d="m 1817.6341,1167.8664 a 43.425298,43.425298 0 0 0 -43.4258,43.4238 43.425298,43.425298 0 0 0 43.4258,43.4258 43.425298,43.425298 0 0 0 43.4238,-43.4258 43.425298,43.425298 0 0 0 -43.4238,-43.4238 z m -24.7207,25.8965 h 49.4394 c 1.9533,0 3.5254,1.5721 3.5254,3.5254 0,1.9532 -1.5721,3.5254 -3.5254,3.5254 h -49.4394 c -1.9533,0 -3.5254,-1.5722 -3.5254,-3.5254 0,-1.9533 1.5721,-3.5254 3.5254,-3.5254 z m 0,14.0019 h 49.4394 c 1.9533,0 3.5254,1.5722 3.5254,3.5254 0,1.9533 -1.5721,3.5274 -3.5254,3.5274 h -49.4394 c -1.9533,0 -3.5254,-1.5741 -3.5254,-3.5274 0,-1.9532 1.5721,-3.5254 3.5254,-3.5254 z m 0,14.0039 h 49.4394 c 1.9533,0 3.5254,1.5722 3.5254,3.5254 0,1.9533 -1.5721,3.5254 -3.5254,3.5254 h -49.4394 c -1.9533,0 -3.5254,-1.5721 -3.5254,-3.5254 0,-1.9532 1.5721,-3.5254 3.5254,-3.5254 z" /></g></svg>
