<?xml version="1.0" encoding="UTF-8" standalone="no"?>
<!-- Created with Inkscape (http://www.inkscape.org/) -->

<svg
   width="22.97896mm"
   height="22.978958mm"
   viewBox="0 0 22.97896 22.978958"
   version="1.1"
   id="svg1"
   xmlns="http://www.w3.org/2000/svg"
   xmlns:svg="http://www.w3.org/2000/svg">
  <defs
     id="defs1" />
  <g
     id="layer1"
     transform="translate(-254.96013,-39.546477)">
    <path
       id="circle1"
       style="fill:#ffffff;stroke-width:0.0686486;paint-order:fill markers stroke"
       d="m 266.44987,39.546477 a 11.48961,11.48961 0 0 0 -11.48974,11.489221 11.48961,11.48961 0 0 0 11.48974,11.489738 11.48961,11.48961 0 0 0 11.48922,-11.489738 11.48961,11.48961 0 0 0 -11.48922,-11.489221 z m -6.54068,6.851778 h 13.08085 c 0.5168,0 0.93276,0.415964 0.93276,0.93276 0,0.516796 -0.41596,0.932759 -0.93276,0.932759 h -13.08085 c -0.5168,0 -0.93276,-0.415963 -0.93276,-0.932759 0,-0.516796 0.41596,-0.93276 0.93276,-0.93276 z m 0,3.704684 h 13.08085 c 0.5168,0 0.93276,0.415963 0.93276,0.932759 0,0.516796 -0.41596,0.933277 -0.93276,0.933277 h -13.08085 c -0.5168,0 -0.93276,-0.416481 -0.93276,-0.933277 0,-0.516796 0.41596,-0.932759 0.93276,-0.932759 z m 0,3.7052 h 13.08085 c 0.5168,0 0.93276,0.415963 0.93276,0.932759 0,0.516796 -0.41596,0.93276 -0.93276,0.93276 h -13.08085 c -0.5168,0 -0.93276,-0.415964 -0.93276,-0.93276 0,-0.516796 0.41596,-0.932759 0.93276,-0.932759 z" />
  </g>
</svg>
