<?xml version="1.0" encoding="UTF-8" standalone="no"?>
<!-- Created with Inkscape (http://www.inkscape.org/) -->

<svg
   width="96"
   height="96"
   viewBox="0 0 96 96"
   version="1.1"
   id="svg1"
   xml:space="preserve"
   xmlns="http://www.w3.org/2000/svg"
   xmlns:svg="http://www.w3.org/2000/svg"><defs
     id="defs1" /><g
     id="layer1"
     transform="translate(-545.33307,-196.94449)"><g
       id="g8"><rect
         style="fill:#c0c0ff;fill-opacity:1;stroke:#c0c0ff;stroke-width:7.0625;stroke-linecap:square;stroke-linejoin:round;stroke-opacity:1"
         id="rect1"
         width="88.9375"
         height="88.9375"
         x="548.86432"
         y="200.47574"
         ry="7.4035993" /><path
         id="path1"
         style="fill:#ffffff;fill-opacity:1;stroke:#ffffff;stroke-width:5.76791;stroke-linecap:square;stroke-linejoin:round;stroke-opacity:1"
         d="m 568.24467,268.0766 a 5.4157486,5.4157162 0 0 1 -5.41575,5.41572 5.4157486,5.4157162 0 0 1 -5.41575,-5.41572 5.4157486,5.4157162 0 0 1 5.41575,-5.41572 5.4157486,5.4157162 0 0 1 5.41575,5.41572 z" /><path
         id="rect4"
         style="fill:#ffffff;fill-opacity:1;stroke:#ffffff;stroke-width:3.30121;stroke-linecap:square;stroke-linejoin:round;stroke-opacity:1"
         d="m 581.63556,266.03592 h 49.49571 v 4.08066 h -49.49571 z" /><path
         id="circle5"
         style="fill:#ffffff;fill-opacity:1;stroke:#ffffff;stroke-width:5.76791;stroke-linecap:square;stroke-linejoin:round;stroke-opacity:1"
         d="m 568.24467,244.30728 a 5.4157486,5.4157162 0 0 1 -5.41575,5.41572 5.4157486,5.4157162 0 0 1 -5.41575,-5.41572 5.4157486,5.4157162 0 0 1 5.41575,-5.41571 5.4157486,5.4157162 0 0 1 5.41575,5.41571 z" /><path
         id="rect5"
         style="fill:#ffffff;fill-opacity:1;stroke:#ffffff;stroke-width:3.30121;stroke-linecap:square;stroke-linejoin:round;stroke-opacity:1"
         d="m 581.63556,242.26659 h 49.49571 v 4.08066 h -49.49571 z" /><path
         id="circle6"
         style="fill:#ffffff;fill-opacity:1;stroke:#ffffff;stroke-width:5.76791;stroke-linecap:square;stroke-linejoin:round;stroke-opacity:1"
         d="m 568.24467,220.53795 a 5.4157486,5.4157162 0 0 1 -5.41575,5.41571 5.4157486,5.4157162 0 0 1 -5.41575,-5.41571 5.4157486,5.4157162 0 0 1 5.41575,-5.41572 5.4157486,5.4157162 0 0 1 5.41575,5.41572 z" /><path
         id="rect6"
         style="fill:#ffffff;fill-opacity:1;stroke:#ffffff;stroke-width:3.30121;stroke-linecap:square;stroke-linejoin:round;stroke-opacity:1"
         d="m 581.63556,218.49725 h 49.49571 v 4.08066 h -49.49571 z" /></g></g></svg>
